<svg xmlns="http://www.w3.org/2000/svg" viewBox="0 0 113.86 98.6"><defs><style>.cls-1{fill:#010101;}.cls-2{fill:none;stroke:#f9b233;stroke-miterlimit:10;stroke-width:6px;}.cls-3{fill:#fff;}</style></defs><g id="Layer_2" data-name="Layer 2"><g id="Layer_1-2" data-name="Layer 1"><polygon class="cls-1" points="30.2 3 3.46 49.3 30.2 95.6 83.66 95.6 110.39 49.3 83.66 3 30.2 3"/><polygon class="cls-2" points="30.2 3 3.46 49.3 30.2 95.6 83.66 95.6 110.39 49.3 83.66 3 30.2 3 30.2 3"/><polygon class="cls-3" points="78.46 12 35.39 12 13.86 49.3 35.39 86.6 78.46 86.6 100 49.3 78.46 12"/><rect x="38.67" y="9.89" width="9" height="79.73" transform="translate(-8.19 8.5) rotate(-10.28)"/><rect x="62.47" y="8.44" width="9" height="52.34" transform="translate(61.31 -40.56) rotate(58.36)"/><rect x="65.1" y="33.85" width="9" height="49.08" transform="translate(143.75 5.92) rotate(104.72)"/></g></g></svg>